<mxfile host="65bd71144e">
    <diagram id="YemXEwH0xH0M0IV9Vhag" name="第 1 页">
        <mxGraphModel dx="-312" dy="-359" grid="1" gridSize="10" guides="1" tooltips="1" connect="1" arrows="1" fold="1" page="1" pageScale="1" pageWidth="1169" pageHeight="827" math="0" shadow="0">
            <root>
                <mxCell id="0"/>
                <mxCell id="1" parent="0"/>
                <mxCell id="2" value="&lt;span&gt;ID = 2&lt;br&gt;创建&lt;/span&gt;&lt;br&gt;&lt;span&gt;数据库&lt;/span&gt;&lt;br&gt;&lt;span&gt;@DBName;&lt;/span&gt;" style="shape=card;whiteSpace=wrap;html=1;sketch=0;fillStyle=auto;fillColor=none;gradientColor=none;gradientDirection=west;fontColor=#000000;labelBackgroundColor=none;" parent="1" vertex="1">
                    <mxGeometry x="1714" y="1206" width="80" height="70" as="geometry"/>
                </mxCell>
            </root>
        </mxGraphModel>
    </diagram>
</mxfile>